<?xml version="1.0" encoding="UTF-8" standalone="no"?>
<!DOCTYPE svg PUBLIC "-//W3C//DTD SVG 1.1//EN" "http://www.w3.org/Graphics/SVG/1.1/DTD/svg11.dtd">
<svg width="100%" height="100%" viewBox="0 0 87 90" version="1.1" xmlns="http://www.w3.org/2000/svg" xmlns:xlink="http://www.w3.org/1999/xlink" xml:space="preserve" xmlns:serif="http://www.serif.com/" style="fill-rule:evenodd;clip-rule:evenodd;stroke-linejoin:round;stroke-miterlimit:2;">
    <g transform="matrix(0.124668,0,0,-0.124153,1,89)">
        <g id="ink_ext_XXXXXX">
            <g id="g2995">
                <g id="g2997">
                    <g id="g2999">
                        <path id="path3005" d="M519.941,115.156C519.941,115.156 472.043,145.82 437.434,165.359C408.398,151.309 375.812,143.32 341.367,143.145C217.969,142.539 117.461,242.039 116.848,365.441C116.23,488.828 215.742,589.348 339.133,589.961C462.48,590.574 563.027,491.055 563.645,367.664C563.965,302.996 536.777,244.648 493.059,203.633L519.941,115.156ZM681.809,364.238L681.809,366.848C681.809,460.676 649.602,540.02 585.129,604.902C520.305,672.383 439.871,707.023 343.84,708.801L339.258,708.801C246.328,707.48 166.555,673.496 99.902,606.875C99.719,606.699 99.559,606.516 99.375,606.32C96.269,603.203 93.281,599.961 90.293,596.711C89.121,595.441 87.918,594.172 86.777,592.883C84.473,590.312 82.219,587.703 80,585.039C26.691,522.285 0,449.609 0,366.848C0,351.758 1.105,336.953 3.008,322.355C9.387,269.023 27.578,219.688 57.961,174.504C89.422,127.754 130.449,91.055 180.977,64.348C230.867,37.668 284.121,24.133 340.703,23.828C350.957,23.828 363.562,25.098 378.293,27.539C387.781,28.711 397.324,30.187 406.941,32.18C418.887,34.473 430.422,37.519 441.777,40.918C487.273,13.652 535.242,0 585.77,0C593.699,0 601.641,0.305 609.609,0.938C624.871,2.539 637.59,9.363 647.734,21.445C656.316,31.945 660.637,43.367 660.637,55.762C660.637,58.32 660.449,60.859 660.156,63.398C658.562,78.977 652.527,91.055 642.012,99.656C633.438,106.633 622.793,110.137 610.066,110.137C607.844,110.137 605.625,109.973 603.398,109.648C595.48,107.742 587.344,106.777 579.082,106.777C574.188,106.777 569.219,107.234 564.23,107.91C570.691,113.508 577.02,119.395 583.191,125.559C648.496,190.879 681.395,270.441 681.809,364.238" style="fill:rgb(69,154,219);fill-rule:nonzero;"/>
                    </g>
                </g>
            </g>
        </g>
    </g>
</svg>
